<svg width="48" height="48" viewBox="0 0 48 48" fill="none" xmlns="http://www.w3.org/2000/svg">
<rect x="1.33325" y="1" width="46" height="46" rx="3.5" fill="#311268" stroke="url(#paint0_linear_1_367)"/>
<g clip-path="url(#clip0_1_367)">
<path d="M21.9053 1.30067C34.4007 1.30067 44.564 11.4761 44.564 23.9863C44.564 35.4224 35.2702 44.7273 23.8477 44.7273C12.4252 44.7273 4.10247 35.8577 4.10247 24.9587C4.10247 15.1337 12.0864 7.14026 21.8997 7.14026C31.1766 7.14026 38.7257 14.6984 38.7257 23.9863C38.7257 32.2002 32.0461 38.8878 23.842 38.8878C16.1687 38.8878 9.92948 32.6411 9.92948 24.9587C9.92948 19.2039 14.0061 14.3762 19.4209 13.2342V30.6965C19.4209 32.1663 20.3187 33.4834 21.6851 34.0205C22.7975 34.4558 24.0284 34.648 25.3157 34.5406C29.2625 34.2014 32.4188 30.9735 32.6785 27.0164C32.9834 22.3074 29.2512 18.3842 24.6099 18.3842C24.0171 18.3842 23.4355 18.4463 22.8821 18.5707V12.1036C22.8821 10.8091 21.8319 9.75762 20.5389 9.75762C20.1606 9.79154 19.788 9.83676 19.4209 9.89895C12.1937 11.0861 6.65461 17.3836 6.65461 24.953C6.65461 34.4388 14.3618 42.1552 23.8364 42.1552C33.8473 42.1552 41.9893 34.0035 41.9893 23.9807C41.9893 12.8838 32.9721 3.85584 21.894 3.85584C10.816 3.85584 0.833252 13.3247 0.833252 24.9587C0.833252 37.661 11.1547 48.0005 23.8477 48.0005C36.5406 48.0005 47.8333 37.2314 47.8333 23.9863C47.8333 10.7412 40.1599 1.11977 26.8628 0.0230792C25.7053 -0.0730226 21.8997 0.13614 21.8997 1.30067H21.9053ZM22.8878 21.6855C23.6388 21.4142 24.4744 21.3124 25.3383 21.4312C27.7323 21.7647 29.5843 23.7998 29.7029 26.2193C29.8497 29.1476 27.5121 31.5784 24.6156 31.5784C24.0114 31.5784 23.4242 31.471 22.8878 31.2731V21.6855Z" fill="white"/>
</g>
<rect x="1.33325" y="0.5" width="46" height="47" stroke="url(#paint1_linear_1_367)"/>
<defs>
<linearGradient id="paint0_linear_1_367" x1="0.833252" y1="24" x2="47.8333" y2="24" gradientUnits="userSpaceOnUse">
<stop stop-color="#F40AB1"/>
<stop offset="1" stop-color="#742AF7"/>
</linearGradient>
<linearGradient id="paint1_linear_1_367" x1="0.833252" y1="24" x2="47.8333" y2="24" gradientUnits="userSpaceOnUse">
<stop stop-color="#F40AB1"/>
<stop offset="1" stop-color="#742AF7"/>
</linearGradient>
<clipPath id="clip0_1_367">
<rect x="0.833252" width="47" height="48" fill="white"/>
</clipPath>
</defs>
</svg>
